<svg data-v-0dd9719b="" version="1.0" xmlns="http://www.w3.org/2000/svg" xmlns:xlink="http://www.w3.org/1999/xlink" width="100%" height="100%" viewBox="0 0 340.000000 250.000000" preserveAspectRatio="xMidYMid meet" color-interpolation-filters="sRGB" style="margin: auto;"> <rect data-v-0dd9719b="" x="0" y="0" width="100%" height="100%" fill="#feffff" fill-opacity="0" class="background"></rect> <rect data-v-0dd9719b="" x="0" y="0" width="100%" height="100%" fill="url(#watermark)" fill-opacity="1" class="watermarklayer"></rect> <g data-v-0dd9719b="" fill="#333" class="iconlettersvg-g iconlettersvg" transform="translate(90,91.51500197749647)"><g><g class="tp-name" transform="matrix(1,0,0,1,0,0)" opacity="1"><g transform="scale(1)"><g transform="translate(0, 0)"><g class="name-imagesvg"><g><rect fill="#333" fill-opacity="0" stroke-width="2" x="0" y="0" width="82.5" height="50" class="image-rect"></rect> <svg filter="url(#colors1355262200)" x="0" y="0" width="82.5" height="50" filtersec="colorsb5241467256" class="image-svg-svg primary" style="overflow: visible;"><svg xmlns="http://www.w3.org/2000/svg" viewBox="0 0 165 100"><title>资源 14</title><g fill="#333"><path d="M142.51 56.9l7.64 37.1a7.5 7.5 0 0 0 7.35 6 7.5 7.5 0 0 0 7.5-7.5 7.66 7.66 0 0 0-.15-1.51l-7.64-37.11a7.5 7.5 0 0 0-13.56-2.69 7.53 7.53 0 0 0-1.14 5.71zM133.79 3.3L82.5 79.12 31.21 3.3A7.5 7.5 0 0 0 25 0a7.5 7.5 0 0 0-7.35 6L.15 91A7.66 7.66 0 0 0 0 92.5a7.5 7.5 0 0 0 7.5 7.5 7.5 7.5 0 0 0 7.35-6l13.91-67.56L76.29 96.7a7.5 7.5 0 0 0 6.21 3.3 7.5 7.5 0 0 0 6.21-3.3l57.5-85a7.48 7.48 0 0 0 1.29-4.2A7.5 7.5 0 0 0 140 0a7.5 7.5 0 0 0-6.21 3.3z"></path></g></svg></svg> <defs><filter id="colors1355262200"><feColorMatrix type="matrix" values="0 0 0 0 0.19921875  0 0 0 0 0.19921875  0 0 0 0 0.19921875  0 0 0 1 0" class="icon-fecolormatrix"></feColorMatrix></filter> <filter id="colorsf8084601973"><feColorMatrix type="matrix" values="0 0 0 0 0.99609375  0 0 0 0 0.99609375  0 0 0 0 0.99609375  0 0 0 1 0" class="icon-fecolormatrix"></feColorMatrix></filter> <filter id="colorsb5241467256"><feColorMatrix type="matrix" values="0 0 0 0 0  0 0 0 0 0  0 0 0 0 0  0 0 0 1 0" class="icon-fecolormatrix"></feColorMatrix></filter></defs></g></g></g><g transform="translate(82.5, 0)"><g class="name-imagesvg"><g><rect fill="#333" fill-opacity="0" stroke-width="2" x="0" y="0" width="7.5" height="50" class="image-rect"></rect> <svg filter="url(#colors1185753748)" x="0" y="0" width="7.5" height="50" filtersec="colorsb3363475882" class="image-svg-svg primary" style="overflow: visible;"><svg xmlns="http://www.w3.org/2000/svg" viewBox="0 0 15 100"><title>资源 13</title><path d="M7.5 100A7.5 7.5 0 0 1 0 92.5v-85A7.5 7.5 0 0 1 7.5 0 7.5 7.5 0 0 1 15 7.5v85a7.5 7.5 0 0 1-7.5 7.5z" fill="#333"></path></svg></svg> <defs><filter id="colors1185753748"><feColorMatrix type="matrix" values="0 0 0 0 0.19921875  0 0 0 0 0.19921875  0 0 0 0 0.19921875  0 0 0 1 0" class="icon-fecolormatrix"></feColorMatrix></filter> <filter id="colorsf3500168034"><feColorMatrix type="matrix" values="0 0 0 0 0.99609375  0 0 0 0 0.99609375  0 0 0 0 0.99609375  0 0 0 1 0" class="icon-fecolormatrix"></feColorMatrix></filter> <filter id="colorsb3363475882"><feColorMatrix type="matrix" values="0 0 0 0 0  0 0 0 0 0  0 0 0 0 0  0 0 0 1 0" class="icon-fecolormatrix"></feColorMatrix></filter></defs></g></g></g><g transform="translate(90, 0)"><g class="name-imagesvg"><g><rect fill="#333" fill-opacity="0" stroke-width="2" x="0" y="0" width="62.49999523162878" height="50" class="image-rect"></rect> <svg filter="url(#colors687160632)" x="0" y="0" width="62.49999523162878" height="50" filtersec="colorsb4622649185" class="image-svg-svg primary" style="overflow: visible;"><svg xmlns="http://www.w3.org/2000/svg" viewBox="0 0 125 100"><title>资源 15</title><g fill="#333"><path d="M7.5 0A7.5 7.5 0 0 0 0 7.5v85a7.5 7.5 0 0 0 7.5 7.5 7.5 7.5 0 0 0 7.5-7.5V22.77l97.92 75.67a7.5 7.5 0 0 0 4.58 1.56 7.5 7.5 0 0 0 7.5-7.5 7.53 7.53 0 0 0-2.91-5.94l-110-85A7.5 7.5 0 0 0 7.5 0zM125 48.27V7.5a7.5 7.5 0 0 0-7.5-7.5 7.5 7.5 0 0 0-7.5 7.5v40.77a7.51 7.51 0 0 0 2.91 5.93A7.5 7.5 0 0 0 125 48.27z"></path></g></svg></svg> <defs><filter id="colors687160632"><feColorMatrix type="matrix" values="0 0 0 0 0.19921875  0 0 0 0 0.19921875  0 0 0 0 0.19921875  0 0 0 1 0" class="icon-fecolormatrix"></feColorMatrix></filter> <filter id="colorsf3373189055"><feColorMatrix type="matrix" values="0 0 0 0 0.99609375  0 0 0 0 0.99609375  0 0 0 0 0.99609375  0 0 0 1 0" class="icon-fecolormatrix"></feColorMatrix></filter> <filter id="colorsb4622649185"><feColorMatrix type="matrix" values="0 0 0 0 0  0 0 0 0 0  0 0 0 0 0  0 0 0 1 0" class="icon-fecolormatrix"></feColorMatrix></filter></defs></g></g></g><g transform="translate(152.4999952316288, 0)"><g class="name-imagesvg"><g><rect fill="#333" fill-opacity="0" stroke-width="2" x="0" y="0" width="7.5" height="50" class="image-rect"></rect> <svg filter="url(#colors7064161993)" x="0" y="0" width="7.5" height="50" filtersec="colorsb3343177698" class="image-svg-svg primary" style="overflow: visible;"><svg xmlns="http://www.w3.org/2000/svg" viewBox="0 0 15 100"><title>资源 13</title><path d="M7.5 100A7.5 7.5 0 0 1 0 92.5v-85A7.5 7.5 0 0 1 7.5 0 7.5 7.5 0 0 1 15 7.5v85a7.5 7.5 0 0 1-7.5 7.5z" fill="#333"></path></svg></svg> <defs><filter id="colors7064161993"><feColorMatrix type="matrix" values="0 0 0 0 0.19921875  0 0 0 0 0.19921875  0 0 0 0 0.19921875  0 0 0 1 0" class="icon-fecolormatrix"></feColorMatrix></filter> <filter id="colorsf3487960825"><feColorMatrix type="matrix" values="0 0 0 0 0.99609375  0 0 0 0 0.99609375  0 0 0 0 0.99609375  0 0 0 1 0" class="icon-fecolormatrix"></feColorMatrix></filter> <filter id="colorsb3343177698"><feColorMatrix type="matrix" values="0 0 0 0 0  0 0 0 0 0  0 0 0 0 0  0 0 0 1 0" class="icon-fecolormatrix"></feColorMatrix></filter></defs></g></g></g></g></g></g> <g data-gra="path-slogan" fill-rule="" class="tp-slogan" fill="#333" transform="matrix(1,0,0,1,66.4888768717006,56.000003814697266)" opacity="0.969366928827049"><!----> <!----> <g transform="scale(1, 1)"><g transform="scale(1)"><path d="M7.36-9.75L7.36-9.75Q8.44-9.56 8.58-9.38L8.58-9.38Q8.58-9.33 8.48-9.23L8.48-9.23Q8.16-8.95 7.88-8.48L7.88-8.48L9.66-8.48Q10.69-8.48 11.20-8.58L11.20-8.58Q11.30-8.58 11.30-8.58L11.30-8.58L11.30-7.64Q11.30-7.64 11.20-7.64L11.20-7.64Q10.64-7.73 9.61-7.73L9.61-7.73L9.19-7.73Q9.33-7.41 9.52-6.98L9.52-6.98Q9.61-6.75 9.66-6.61L9.66-6.61L8.63-6.47Q8.44-7.45 8.25-7.73L8.25-7.73L7.50-7.73Q6.98-6.89 6.52-6.38L6.52-6.38L5.53-6.66Q6.70-7.50 7.36-9.75ZM2.77-9.70L2.77-9.70Q3.84-9.38 3.89-9.23L3.89-9.23Q3.89-9.19 3.75-9.09L3.75-9.09Q3.42-8.86 3.14-8.48L3.14-8.48L4.50-8.48Q5.39-8.48 5.95-8.58L5.95-8.58Q6.05-8.58 6.09-8.58L6.09-8.58L6.09-7.64Q6.05-7.64 5.95-7.64L5.95-7.64Q5.48-7.73 4.59-7.73L4.59-7.73L4.41-7.73Q4.59-7.31 4.83-6.61L4.83-6.61L3.84-6.56Q3.80-7.17 3.47-7.73L3.47-7.73L2.67-7.73Q2.58-7.64 2.53-7.55L2.53-7.55Q2.11-6.94 1.69-6.52L1.69-6.52Q1.55-6.38 1.36-6.19L1.36-6.19L0.38-6.66Q2.02-7.78 2.77-9.70ZM2.44-6.09L3.33-6.42Q3.84-5.72 4.22-4.92L4.22-4.92L3.33-4.55Q3.05-5.25 2.44-6.09L2.44-6.09ZM10.55-6.14L10.55-6.14Q10.45-5.77 10.45-4.88L10.45-4.88L10.45 0Q10.78 1.17 8.34 1.22L8.34 1.22Q8.20 0.42 7.92 0L7.92 0Q9.52 0.42 9.42-0.42L9.42-0.42L9.42-5.30L6.23-5.30Q5.34-5.30 4.64-5.20L4.64-5.20Q4.55-5.20 4.55-5.20L4.55-5.20L4.55-6.23Q4.59-6.23 4.69-6.23L4.69-6.23Q5.30-6.14 6.23-6.14L6.23-6.14L9.19-6.14Q9.75-6.14 10.22-6.19L10.22-6.19Q10.36-6.19 10.41-6.19L10.41-6.19Q10.55-6.23 10.55-6.14ZM1.55-5.06L1.55-5.06Q2.67-5.02 2.77-4.83L2.77-4.83Q2.77-4.78 2.72-4.69L2.72-4.69Q2.53-4.31 2.53-3.80L2.53-3.80L2.53-0.66Q2.53 0.47 2.63 1.03L2.63 1.03Q2.63 1.13 2.63 1.13L2.63 1.13L1.50 1.13Q1.59 0.70 1.59-0.61L1.59-0.61L1.59-3.84Q1.59-4.88 1.55-5.06ZM8.02-3.33L8.02-3.33L8.02-1.69Q8.02-0.70 8.11-0.33L8.11-0.33Q7.92-0.42 6.89-0.42L6.89-0.42L4.97-0.42Q3.98-0.42 3.80-0.33L3.80-0.33Q3.89-0.75 3.89-1.45L3.89-1.45L3.89-3.23Q3.89-4.13 3.80-4.50L3.80-4.50Q4.13-4.41 5.06-4.41L5.06-4.41L6.89-4.41Q8.02-4.41 8.11-4.45L8.11-4.45Q8.02-4.27 8.02-3.33ZM7.08-3.70L4.78-3.70L4.78-2.72L7.08-2.72L7.08-3.70ZM7.08-2.11L4.83-2.11L4.83-1.13L7.08-1.13L7.08-2.11ZM18.84-9.66L18.84-9.66Q19.97-9.61 20.11-9.47L20.11-9.47Q20.11-9.42 20.06-9.38L20.06-9.38Q19.88-8.86 19.88-7.69L19.88-7.69L21.56-7.69Q22.64-7.69 23.16-7.83L23.16-7.83Q23.20-7.83 23.20-7.83L23.20-7.83L23.20-6.75Q23.20-6.75 23.11-6.75L23.11-6.75Q22.59-6.84 21.61-6.84L21.61-6.84L19.88-6.84L19.88-5.34L20.95-5.34Q21.98-5.34 22.59-5.44L22.59-5.44Q22.69-5.44 22.73-5.44L22.73-5.44L22.73-4.41Q22.73-4.41 22.69-4.41L22.69-4.41Q22.17-4.45 20.91-4.45L20.91-4.45L17.67-4.45Q16.83-4.45 16.22-4.36L16.22-4.36Q16.08-4.36 16.03-4.36L16.03-4.36L16.03-5.44Q16.03-5.44 16.13-5.44L16.13-5.44Q16.69-5.34 17.63-5.34L17.63-5.34L18.89-5.34L18.89-6.84L17.48-6.84Q16.59-6.84 15.98-6.75L15.98-6.75Q15.89-6.75 15.84-6.75L15.84-6.75L15.84-7.78Q15.89-7.78 15.98-7.78L15.98-7.78Q16.59-7.69 17.48-7.69L17.48-7.69L18.94-7.69Q18.94-8.81 18.84-9.52L18.84-9.52Q18.84-9.61 18.84-9.66ZM13.13-8.39L13.83-9.14Q14.95-8.34 15.61-7.73L15.61-7.73L14.81-6.94Q14.11-7.73 13.13-8.39L13.13-8.39ZM12.42-5.48L13.08-6.23Q13.59-5.91 14.44-5.34L14.44-5.34Q14.81-5.06 15.09-4.88L15.09-4.88L14.39-3.98Q13.78-4.59 12.42-5.48L12.42-5.48ZM14.39-3.47L14.39-3.47L15.38-2.81Q14.48-0.70 14.06 0.75L14.06 0.75Q13.97 1.03 13.92 1.08L13.92 1.08Q13.73 1.08 12.80 0.38L12.80 0.38Q13.69-0.89 14.39-3.47ZM22.22-1.97L22.22-1.97L22.22-0.52Q22.22 0.38 22.31 0.89L22.31 0.89Q22.31 0.98 22.31 1.03L22.31 1.03L21.14 1.03Q21.19 0.89 21.19 0.19L21.19 0.19L17.48 0.19Q17.48 0.94 17.53 1.08L17.53 1.08L16.41 1.08Q16.41 1.03 16.41 0.94L16.41 0.94Q16.50 0.38 16.50-0.52L16.50-0.52L16.50-2.16Q16.50-3.05 16.41-3.42L16.41-3.42Q16.92-3.33 17.86-3.33L17.86-3.33L20.77-3.33Q21.98-3.33 22.27-3.42L22.27-3.42Q22.22-3.28 22.22-1.97ZM21.19-2.44L17.48-2.44L17.48-0.52L21.19-0.52L21.19-2.44Z" transform="translate(-0.375, 9.75)"></path></g></g></g></g><defs v-gra="od"></defs></svg>